<svg version="1.1" id="Layer_1" xmlns="http://www.w3.org/2000/svg" xmlns:xlink="http://www.w3.org/1999/xlink" x="0px" y="0px"
	 width="100%" viewBox="0 0 832 144" enable-background="new 0 0 832 144" xml:space="preserve">
<path fill="#000000" opacity="1.000000" stroke="none" 
	d="
M397.022766,85.023895 
	C389.226440,91.577301 380.833557,96.324783 371.044281,97.798508 
	C365.427612,98.644073 365.805786,102.807610 365.663696,106.353745 
	C365.492676,110.622284 368.341614,112.704704 372.911041,112.687706 
	C378.090240,112.668449 382.152863,109.847206 385.973907,106.993340 
	C395.482117,99.891861 404.065918,92.058914 409.593231,81.047569 
	C415.642975,68.995461 422.949158,57.593605 431.635864,47.177994 
	C433.771698,44.617062 435.990753,42.119534 439.056061,40.591644 
	C441.504852,39.371056 443.871613,39.216980 445.958252,41.292999 
	C448.449219,43.771313 446.183014,45.548077 444.888519,47.322411 
	C435.069916,60.780434 424.982880,74.044113 415.923859,88.045776 
	C413.562897,91.694901 411.252869,95.355232 409.686493,99.410965 
	C408.371338,102.816315 406.391144,106.945625 409.501587,109.676514 
	C412.747528,112.526375 416.756989,110.228569 420.169769,108.392647 
	C427.157104,104.633766 433.038940,99.537468 438.201691,93.541420 
	C439.537567,91.989914 440.501587,89.719910 443.212708,89.977798 
	C444.720734,91.603149 443.383148,92.883408 442.549591,93.901855 
	C436.619324,101.147331 430.264984,107.954750 422.053955,112.732979 
	C418.324554,114.903229 414.341370,115.884941 410.062866,115.179962 
	C403.272766,114.061172 401.538849,111.606331 400.183197,101.278320 
	C395.268829,104.828773 390.628510,108.547478 385.627258,111.692238 
	C380.552429,114.883308 375.037567,117.829575 368.795990,116.664536 
	C362.741608,115.534409 357.993835,112.342857 357.327759,104.934181 
	C353.788544,107.750832 350.767273,110.312790 347.581940,112.651260 
	C343.390167,115.728638 338.947906,117.942383 333.783569,114.730270 
	C328.656097,111.541061 329.877686,106.851357 330.920593,102.226036 
	C331.051300,101.646400 331.210815,101.073265 331.543671,99.761375 
	C326.873260,103.973152 322.941040,107.773979 318.719543,111.220421 
	C316.559265,112.984047 313.971558,114.311882 311.413269,115.477066 
	C308.460449,116.821922 305.198792,117.430244 302.409149,115.233231 
	C299.410553,112.871620 298.552246,109.514526 299.362396,105.807190 
	C299.890198,103.391968 300.569336,101.009819 301.402527,97.743073 
	C297.706390,100.733475 294.564240,103.266220 291.432587,105.811844 
	C287.789398,108.773239 283.948242,111.364128 279.338165,112.620758 
	C270.245422,115.099297 263.964111,109.244308 266.046417,100.035194 
	C267.875122,91.947662 272.024536,84.902107 276.489136,78.034157 
	C276.905487,77.393692 277.305847,76.742828 277.447937,75.921432 
	C263.373383,84.807709 251.588196,95.763260 244.469009,111.078438 
	C243.386002,113.408272 242.383438,116.035370 239.121338,114.979118 
	C235.880844,113.929855 235.838760,111.322144 236.524963,108.417389 
	C238.419418,100.397919 242.084122,93.104561 245.587357,85.739227 
	C247.159378,82.434120 248.754181,79.139839 250.966599,74.533127 
	C243.305786,79.008331 237.786606,84.061958 232.809418,89.624008 
	C226.259979,96.943062 220.124039,104.630798 213.723648,112.085579 
	C212.280167,113.766853 210.787689,116.234978 207.975540,114.376160 
	C205.562210,112.780937 204.335938,110.353828 205.222046,107.473183 
	C206.438980,103.517052 207.964066,99.655724 209.003525,96.744164 
	C205.918289,99.569435 202.061920,103.002304 198.324265,106.559891 
	C196.017044,108.755959 193.601227,110.775459 190.831497,112.346466 
	C182.577087,117.028397 175.311874,113.290581 174.459534,103.933647 
	C174.386154,103.128113 174.351883,102.319016 174.271240,101.077415 
	C169.907288,104.829224 165.880264,108.436150 161.690063,111.842384 
	C158.943634,114.074974 155.880295,115.609413 152.094025,115.409225 
	C145.586563,115.065193 141.203705,110.512871 141.454391,104.061386 
	C141.558868,101.372711 141.981796,98.716377 143.259354,96.337036 
	C150.714874,82.451851 160.999985,71.346375 175.670380,65.059738 
	C181.680023,62.484455 188.257919,60.396881 192.899841,67.915413 
	C192.983292,68.050568 193.139404,68.147018 193.274673,68.243156 
	C200.168488,73.142715 200.166626,73.141197 195.507706,80.384300 
	C192.353699,85.287773 189.091049,90.126701 186.103958,95.130005 
	C184.578659,97.684868 183.478149,100.506798 182.327118,103.267021 
	C181.540588,105.153107 181.051086,107.222015 182.842499,108.829552 
	C184.884399,110.661865 186.992386,109.484039 188.841324,108.416931 
	C192.915710,106.065414 196.277634,102.817352 199.506607,99.430191 
	C206.768646,91.812340 213.214386,83.541115 219.211212,74.907135 
	C220.446655,73.128372 221.713379,71.371033 222.983490,69.616714 
	C224.949890,66.900642 227.509506,64.279289 230.861542,66.243416 
	C234.666077,68.472672 231.825638,71.629227 230.504990,74.058319 
	C226.632401,81.181213 222.500687,88.163223 219.130737,95.688423 
	C225.398361,89.829353 231.682098,83.987381 237.928131,78.105370 
	C242.308365,73.980392 246.916550,70.150986 252.109299,67.087387 
	C253.531952,66.248039 255.057281,65.504799 256.627991,65.012810 
	C258.933441,64.290672 260.943878,65.184471 262.463715,66.915680 
	C263.937378,68.594261 263.113525,70.377495 262.231018,72.022171 
	C259.251221,77.575470 256.234314,83.108849 252.725067,89.584557 
	C260.133453,83.739754 266.680878,78.506752 273.305878,73.373817 
	C277.022034,70.494606 281.150665,68.353996 285.710815,67.086678 
	C288.442230,66.327599 290.713226,67.035217 292.313660,69.315338 
	C293.906067,71.584023 291.847778,73.036331 290.730835,74.541740 
	C285.081238,82.156136 278.532166,89.178581 274.719757,98.005585 
	C273.426422,101.000114 270.502258,104.546997 274.171753,107.526146 
	C277.573486,110.287918 281.179962,108.166962 284.350159,106.264153 
	C293.215698,100.942932 299.888611,93.265289 306.430084,85.456024 
	C310.174927,80.985367 313.946350,76.536247 317.760071,72.124336 
	C319.740601,69.833176 321.886871,67.699303 325.195374,67.553322 
	C327.190002,67.465302 329.363800,67.195679 330.411102,69.479004 
	C331.374481,71.579353 329.826630,72.908203 328.575562,74.235504 
	C321.461639,81.782883 315.225159,89.999245 310.011505,98.959259 
	C308.599640,101.385635 307.506165,104.039886 306.604919,106.704018 
	C306.106628,108.176910 305.593689,110.128021 307.365936,111.250374 
	C308.847839,112.188843 310.252502,111.172974 311.551941,110.452217 
	C318.065674,106.839233 323.328400,101.716057 328.136017,96.164680 
	C334.242645,89.113335 340.044220,81.798653 346.054596,74.662613 
	C348.196075,72.120026 350.413635,69.604385 353.305298,67.839348 
	C355.899994,66.255577 358.558807,66.279778 360.598511,68.517502 
	C362.460999,70.560776 361.660461,72.946236 360.119080,74.913963 
	C355.189240,81.207497 350.136780,87.405258 345.228790,93.715553 
	C342.570007,97.134048 339.964691,100.638359 338.707550,104.873116 
	C338.188568,106.621368 337.705353,108.633217 339.311584,110.024368 
	C340.881165,111.383835 342.570129,110.226089 343.913544,109.373299 
	C350.505005,105.189064 356.922119,101.011604 360.882202,93.701927 
	C365.865204,84.504219 373.133789,77.104210 381.819916,71.227463 
	C383.865601,69.843430 386.190247,68.755089 388.529968,67.944931 
	C394.680450,65.815254 399.414764,66.752953 401.739838,70.280121 
	C404.076874,73.825462 403.027985,78.291740 398.662964,83.326004 
	C398.226715,83.829163 397.737915,84.286797 397.022766,85.023895 
M174.140503,93.656395 
	C179.570953,86.247444 185.001404,78.838493 190.543594,71.277092 
	C185.793457,68.195465 182.270889,70.431732 179.062469,72.109703 
	C169.961594,76.869377 162.536179,83.748077 155.995148,91.599075 
	C153.006958,95.185715 150.353989,98.951477 149.122208,103.592400 
	C148.445633,106.141495 147.991165,108.640572 150.125809,110.534416 
	C152.530502,112.667839 154.907883,110.815468 156.983063,109.686508 
	C163.841095,105.955551 168.811447,100.108589 174.140503,93.656395 
M390.186890,84.688019 
	C392.777100,82.793594 394.833954,80.404106 396.423676,77.645935 
	C397.217926,76.267975 398.490143,74.702782 396.908722,73.142677 
	C395.706238,71.956406 394.061493,72.192993 392.691711,72.871246 
	C383.716980,77.315186 376.870392,84.027382 370.722321,93.433510 
	C378.778717,92.487251 384.279572,88.994980 390.186890,84.688019 
z"/>
<path fill="#000000" opacity="1.000000" stroke="none" 
	d="
M636.097046,102.369644 
	C631.129333,105.754845 627.428101,110.385117 622.325012,113.333572 
	C617.150879,116.323090 612.595642,116.342026 608.363647,113.086349 
	C604.125916,109.826286 603.397583,105.509232 604.661499,100.560410 
	C605.581299,96.958946 607.095825,93.603088 609.183350,90.605881 
	C615.524231,81.502113 623.112854,73.619293 632.621155,67.735634 
	C636.643738,65.246490 641.025024,63.689938 645.691345,63.045567 
	C649.348694,62.540512 652.774963,63.131565 654.876892,66.593773 
	C655.859619,68.212502 657.303894,68.649567 658.905334,69.197800 
	C662.559265,70.448662 663.486572,72.686539 661.216675,76.085007 
	C657.423889,81.763306 653.725220,87.504807 650.017395,93.239380 
	C648.024109,96.322021 646.313721,99.542358 645.137817,103.049408 
	C644.412170,105.213478 643.810303,107.309906 645.922485,108.962555 
	C647.842529,110.464890 649.842957,109.571106 651.501648,108.476936 
	C659.236877,103.374458 665.756409,96.917320 670.810913,89.210884 
	C673.798462,84.655777 675.831421,79.474533 678.250305,74.661232 
	C677.946228,74.219666 677.809814,73.778778 677.575073,73.718086 
	C675.068909,73.070122 671.719482,73.117767 672.061707,69.372581 
	C672.365662,66.046387 675.501099,65.069031 678.082520,65.330330 
	C684.804321,66.010750 688.454834,62.265350 691.714172,57.292271 
	C692.872864,55.524418 694.510315,53.941536 696.238464,52.707176 
	C698.580383,51.034386 700.713013,52.568291 702.578186,53.970955 
	C704.600037,55.491467 704.123962,57.346924 703.018860,59.289974 
	C702.057800,60.979897 700.114746,62.133553 700.136780,64.965347 
	C709.311646,66.903076 718.786255,64.707878 729.213562,66.233475 
	C723.793518,69.736794 718.549316,69.347610 713.721985,70.262001 
	C707.362122,71.466690 700.923645,72.334442 694.483337,73.003372 
	C691.360962,73.327682 689.271423,74.614342 687.556274,77.138252 
	C681.848511,85.537216 675.747009,93.719780 673.066467,103.745758 
	C671.663330,108.994026 673.815491,111.909042 679.290039,111.584824 
	C686.586121,111.152740 693.226257,108.340691 699.196533,104.258842 
	C706.372375,99.352722 712.572083,93.361053 718.194031,86.672455 
	C725.927917,77.471230 734.013306,68.525665 745.922791,64.500381 
	C749.715210,63.218586 753.801758,61.681782 757.546814,63.775173 
	C761.032410,65.723526 763.687988,68.922058 767.427856,70.790169 
	C769.994080,72.071999 768.350708,74.572189 767.179321,76.422577 
	C762.726624,83.455956 758.181152,90.432213 753.836853,97.531685 
	C752.640137,99.487411 752.028687,101.799866 751.135376,103.943123 
	C750.356567,105.811852 750.431702,107.597572 752.026855,108.954697 
	C753.703003,110.380753 755.493286,109.631874 757.161133,108.788910 
	C760.622559,107.039368 763.326294,104.300125 766.264832,101.845215 
	C776.694946,93.131844 781.624207,80.665543 788.486694,69.526878 
	C793.296814,61.719337 798.170471,53.969852 804.123779,46.964897 
	C806.286438,44.420200 808.585388,42.017258 811.660950,40.514965 
	C814.169678,39.289494 816.526001,39.291348 818.486816,41.460033 
	C820.545349,43.736732 818.650085,45.468727 817.426636,47.164448 
	C807.294128,61.208397 796.699585,74.923103 787.405334,89.562897 
	C784.807617,93.654648 782.345642,97.783600 781.068481,102.515099 
	C780.414246,104.938797 779.389160,107.540741 781.544067,109.547630 
	C783.773315,111.623878 786.569458,110.922920 789.086914,109.925804 
	C796.679321,106.918594 802.828857,101.882019 808.298645,95.937004 
	C809.989502,94.099258 811.614319,92.198257 813.359131,90.413979 
	C814.074585,89.682396 815.040833,89.305435 816.075806,90.115364 
	C816.885010,91.569885 815.964905,92.647110 815.139954,93.652069 
	C809.305847,100.759125 803.077759,107.453362 795.164551,112.341385 
	C792.873901,113.756348 790.414734,114.801659 787.758423,115.203239 
	C778.739380,116.566711 773.736816,112.444962 772.228210,102.152176 
	C767.738098,105.506195 764.484619,110.081596 759.528625,112.557220 
	C753.581543,115.527908 748.058105,114.482719 744.929749,109.762207 
	C743.358337,107.391197 743.975525,104.572365 742.777649,101.484726 
	C738.789551,104.944954 735.097168,108.379875 731.161804,111.509171 
	C725.189819,116.257950 720.262573,116.678719 715.109558,113.491539 
	C710.825378,110.841698 710.265930,106.664322 710.238892,101.624367 
	C703.406616,106.500465 696.856995,110.904503 689.364319,113.714424 
	C685.542236,115.147766 681.606506,115.811981 677.666992,116.024117 
	C669.127747,116.483963 665.423706,111.972145 666.188660,102.051712 
	C661.334045,105.932961 657.629456,110.694450 652.192139,113.190895 
	C646.193909,115.944893 639.813049,113.530075 637.850525,107.665428 
	C637.275024,105.945534 636.863770,104.170685 636.097046,102.369644 
M637.041870,93.554283 
	C640.790833,88.467583 644.696838,83.486374 648.216919,78.245934 
	C649.776306,75.924377 653.889648,73.466553 651.869202,70.888565 
	C649.333679,67.653358 645.520752,70.928452 642.325195,71.845230 
	C641.545227,72.068985 640.830994,72.571899 640.130920,73.016380 
	C630.772034,78.958649 622.610779,86.208839 616.115356,95.236656 
	C614.267090,97.805412 612.741455,100.556862 611.947327,103.686058 
	C611.310669,106.194595 610.765198,108.667572 613.044250,110.602234 
	C615.345276,112.555527 617.517090,110.933456 619.485107,109.898987 
	C626.578674,106.170341 631.581177,100.121338 637.041870,93.554283 
M723.714966,93.247032 
	C720.896240,96.998901 718.483643,100.974213 717.709290,105.683441 
	C716.990417,110.055908 719.857483,112.364471 723.941284,110.707741 
	C728.002441,109.060249 731.326355,106.323112 734.446838,103.279671 
	C741.865540,96.044014 747.802795,87.630630 753.741577,79.218163 
	C755.604248,76.579582 758.033569,74.267334 759.081421,70.918259 
	C754.917175,68.135468 751.446655,70.477280 748.214355,72.087837 
	C738.508545,76.923943 731.176819,84.646248 723.714966,93.247032 
z"/>
<path fill="#000000" opacity="1.000000" stroke="none" 
	d="
M541.011169,26.082310 
	C533.028076,26.131477 526.062805,28.336414 519.634155,32.028183 
	C502.395813,41.927574 488.275665,55.033161 478.769867,72.724052 
	C475.306427,79.169769 473.545502,86.001450 474.199432,93.381897 
	C474.700623,99.038765 478.067200,103.126846 483.421722,104.393059 
	C493.584778,106.796356 508.087189,101.137520 514.032715,92.448647 
	C517.463989,87.434151 517.880310,85.452080 516.702087,79.217430 
	C520.096863,78.415543 521.115540,80.242203 521.332153,83.126297 
	C521.724304,88.348129 519.370667,92.642151 516.114807,96.241035 
	C507.850006,105.376358 497.289368,109.382103 485.127411,107.818993 
	C473.355164,106.305962 466.622070,96.832962 467.390442,84.612473 
	C468.295868,70.212898 476.092285,59.415833 485.311859,49.307838 
	C498.278351,35.091793 513.883911,25.522335 533.076294,22.270115 
	C539.360229,21.205265 545.692688,20.932245 551.946045,21.932043 
	C560.662109,23.325569 565.295593,30.828789 563.945557,40.166615 
	C562.143250,52.633533 556.427002,63.512856 550.496643,74.330467 
	C550.283386,74.719414 550.147583,75.150818 549.613403,76.429909 
	C562.413513,65.764351 574.440430,55.550163 587.636963,46.859440 
	C597.389343,40.436882 607.345886,34.386517 618.202759,29.968533 
	C619.586670,29.405376 621.009033,28.916975 622.445984,28.507677 
	C625.969788,27.503931 629.139221,28.058277 631.232849,31.290554 
	C633.300476,34.482773 632.794189,37.634064 630.360046,40.494015 
	C623.883423,48.103691 616.793518,55.166538 610.630981,63.065018 
	C599.812622,76.930855 590.712708,91.796715 583.852600,107.998627 
	C582.360046,111.523659 581.276794,115.193237 581.205872,119.104149 
	C581.136414,122.936295 582.451965,124.465279 586.342651,122.752800 
	C589.541077,121.345009 592.821167,120.119125 596.086853,118.869492 
	C597.586731,118.295532 599.091980,117.306458 600.731567,118.333282 
	C601.482544,120.247215 600.369263,121.383102 599.147522,122.211739 
	C594.295410,125.502480 589.144409,128.319183 583.291687,129.210587 
	C577.227295,130.134201 574.291626,127.338570 573.707031,120.708939 
	C572.932251,111.921944 575.856323,103.965019 579.345276,96.174385 
	C587.156189,78.733528 598.225647,63.271667 609.002014,47.635773 
	C610.121216,46.011806 611.215027,44.370304 612.939819,41.822220 
	C605.706055,42.893158 600.032593,45.328194 594.682007,48.511444 
	C577.324097,58.838219 562.920898,72.691826 549.095581,87.182724 
	C541.039307,95.626854 533.395142,104.436096 527.308899,114.470612 
	C526.272766,116.178871 524.659424,117.951576 525.014771,119.879372 
	C525.546265,122.763077 524.629944,124.253555 522.078491,125.225754 
	C519.028992,126.387733 515.790649,127.207184 512.930542,125.461761 
	C510.303619,123.858665 511.727631,121.315117 512.738770,119.224457 
	C517.546997,109.282608 524.121460,100.436302 530.126465,91.232697 
	C538.312134,78.687065 546.973389,66.410133 552.337952,52.240444 
	C553.823547,48.316574 555.216675,44.258362 555.343750,40.187000 
	C555.623474,31.222906 552.864380,25.304607 541.011169,26.082310 
z"/>
<path fill="#000000" opacity="1.000000" stroke="none" 
	d="
M47.010353,81.249588 
	C49.213196,87.674492 49.139751,94.073776 50.252991,100.277016 
	C50.784817,103.240479 51.300228,106.197670 52.483082,108.941513 
	C54.959095,114.685066 58.311226,119.022202 65.540237,119.378822 
	C85.913971,120.383888 104.578194,116.348618 120.144508,102.286324 
	C123.262398,99.469688 125.591423,95.982147 127.247192,92.113167 
	C129.638626,86.525208 128.671432,83.658592 123.678978,80.230392 
	C119.581047,77.416451 114.884766,76.387291 110.175301,75.332214 
	C104.013893,73.951866 97.828720,72.668015 91.700371,71.154030 
	C88.967934,70.478989 86.269341,69.524651 83.692337,68.386887 
	C71.208138,62.875038 68.497894,51.994865 77.124596,41.325977 
	C83.369148,33.603153 91.692528,28.714903 100.973076,25.510345 
	C114.059532,20.991606 127.456184,19.104153 141.232162,21.649473 
	C145.017014,22.348783 148.617065,23.676672 151.884369,25.759268 
	C156.567825,28.744520 159.406509,32.975883 159.158920,38.594032 
	C158.910873,44.223003 155.813217,48.098316 150.659393,50.529289 
	C143.961761,53.688427 140.114578,54.059593 136.246384,51.378296 
	C137.805298,48.676487 140.731476,49.621552 142.955765,49.056137 
	C147.316193,47.947712 150.932541,46.247612 151.593231,41.347931 
	C152.285217,36.216171 150.247696,32.119049 145.702454,29.655203 
	C143.248779,28.325125 140.499817,27.072369 137.777588,26.781622 
	C121.168419,25.007685 105.122757,26.394651 91.256081,37.020836 
	C86.335220,40.791756 80.980385,45.035320 82.523750,52.122623 
	C83.997742,58.891376 90.453621,60.784508 96.216293,62.264008 
	C103.602913,64.160439 111.201164,65.229080 118.701797,66.687469 
	C120.495316,67.036194 122.284042,67.443703 124.039955,67.946457 
	C141.770996,73.023216 142.497513,85.041992 135.319290,98.055824 
	C130.279938,107.191978 121.831749,112.576126 112.345032,116.409973 
	C99.984413,121.405251 87.122787,123.582443 73.813469,123.355530 
	C72.404640,123.331505 70.863441,122.875526 69.394600,123.914124 
	C71.078697,125.858627 74.349968,124.972443 75.695145,127.784569 
	C73.158653,130.324722 70.037292,129.740189 67.678543,128.264130 
	C60.285877,123.637978 51.996128,121.305313 44.063587,118.019829 
	C33.737183,113.742851 27.213194,101.545311 28.686083,90.761559 
	C29.454180,85.137947 32.312355,80.783493 37.709770,78.511116 
	C41.272678,77.011078 44.564060,77.132065 47.010353,81.249588 
M45.764240,106.454079 
	C42.164612,98.998306 42.206875,90.466179 39.142506,82.109665 
	C34.649235,85.350357 34.209869,89.166527 34.733456,93.431038 
	C35.911129,103.023003 40.410042,110.219345 49.716217,114.077461 
	C48.503071,111.765152 47.289921,109.452850 45.764240,106.454079 
z"/>
</svg>